<svg width="121" height="6" viewBox="0 0 121 6" fill="none" xmlns="http://www.w3.org/2000/svg">
<path d="M1.00062 3.11462C2.93957 3.14846 2.32484 3.13773 4.26379 3.17158C5.92069 3.2005 9.77422 2.62212 9.77422 2.62212C9.77422 2.62212 13.7365 2.58125 14.7735 2.70938C16.8348 2.96408 20.7725 2.81409 20.7725 2.81409L26.2717 2.91008C26.2717 2.91008 32.4138 3.23622 34.7704 3.05843C37.7165 2.83616 40.55 2.85455 43.5 2.55597C47.1904 2.18245 51.5757 2.79239 55.2847 2.41635C57.4356 2.1983 61.1197 2.5182 63.2835 2.55597C66.7889 2.61716 71.0017 2.40257 74.5 2.41635C81.227 2.44286 82.5888 2.36974 89.2981 1.95069C94.9717 1.59633 102.097 2.17389 107.795 2.27336C111.295 2.33468 115 1.5 119.5 1.95079" stroke="black" stroke-width="2" stroke-linecap="round"/>
</svg>
